<svg xmlns="http://www.w3.org/2000/svg" width="18.51" height="18.542" viewBox="0 0 18.51 18.542">
  <g id="bxl-instagram-alt" transform="translate(0 0)">
    <path id="Path_1" data-name="Path 1" d="M22.946,9.943a6.712,6.712,0,0,0-.43-2.278,4.739,4.739,0,0,0-2.707-2.707,6.79,6.79,0,0,0-2.247-.432c-.989-.045-1.3-.057-3.813-.057s-2.832,0-3.814.057a6.79,6.79,0,0,0-2.246.432A4.736,4.736,0,0,0,4.983,7.665a6.737,6.737,0,0,0-.43,2.246c-.045.99-.058,1.3-.058,3.814s0,2.831.058,3.814a6.776,6.776,0,0,0,.43,2.248A4.739,4.739,0,0,0,7.69,22.492a6.768,6.768,0,0,0,2.246.463c.99.045,1.3.058,3.814.058s2.832,0,3.814-.058a6.774,6.774,0,0,0,2.247-.43,4.744,4.744,0,0,0,2.707-2.707,6.752,6.752,0,0,0,.43-2.248c.045-.989.058-1.3.058-3.814s0-2.829-.06-3.813Zm-9.2,8.529A4.752,4.752,0,1,1,18.5,13.721a4.75,4.75,0,0,1-4.752,4.751ZM18.685,9.9a1.108,1.108,0,1,1,1.107-1.108A1.107,1.107,0,0,1,18.685,9.9Z" transform="translate(-4.495 -4.47)" fill="#000000"/>
    <path id="Path_2" data-name="Path 2" d="M19.66,16.55a3.087,3.087,0,1,1-3.087-3.087A3.087,3.087,0,0,1,19.66,16.55Z" transform="translate(-7.325 -7.3)" fill="#000000"/>
  </g>
</svg>
