<svg xmlns="http://www.w3.org/2000/svg" width="18.542" height="18.542" viewBox="0 0 18.542 18.542">
  <path id="whatsapp" d="M9.85,17.383A8.615,8.615,0,0,1,5.632,16.3L0,18.542,2.245,12.91A8.615,8.615,0,0,1,1.159,8.691a8.472,8.472,0,0,1,.688-3.377A8.6,8.6,0,0,1,6.473.688a8.632,8.632,0,0,1,6.754,0,8.6,8.6,0,0,1,4.627,4.627,8.632,8.632,0,0,1,0,6.754A8.6,8.6,0,0,1,13.227,16.7,8.459,8.459,0,0,1,9.85,17.383Zm2.9-6.953H11.589l-.652.579a5.068,5.068,0,0,1-2-1.4,5.063,5.063,0,0,1-1.4-2l.579-.652V5.794a1.061,1.061,0,0,0-.217-.615,1.377,1.377,0,0,0-.48-.443q-.263-.136-.371-.027l-.851.851a2.04,2.04,0,0,0-.208,2.2,7.522,7.522,0,0,0,1.9,2.9,7.509,7.509,0,0,0,2.9,1.9,2.041,2.041,0,0,0,2.2-.208l.851-.851q.109-.109-.027-.371a1.377,1.377,0,0,0-.443-.48A1.061,1.061,0,0,0,12.747,10.43Z" fill="#000000"/>
</svg>
